<svg width="94" height="13" viewBox="0 0 94 13" fill="none" xmlns="http://www.w3.org/2000/svg">
<path d="M6.15879 10.8352L3.04251 12.9143C2.64061 13.1807 2.14596 12.7844 2.26344 12.2971L3.16617 8.56759C3.19058 8.46421 3.1867 8.35569 3.15497 8.25453C3.12325 8.15337 3.06497 8.06369 2.98686 7.99582L0.192099 5.54632C-0.172705 5.22795 0.0127878 4.58471 0.488887 4.55222L4.13692 4.30532C4.23645 4.29924 4.33215 4.26281 4.41231 4.20051C4.49247 4.1382 4.55362 4.0527 4.58828 3.95447L5.94857 0.354934C5.98457 0.250913 6.05017 0.161055 6.13645 0.0975578C6.22273 0.0340605 6.32551 0 6.43085 0C6.53618 0 6.63897 0.0340605 6.72525 0.0975578C6.81153 0.161055 6.87712 0.250913 6.91313 0.354934L8.27341 3.95447C8.30808 4.0527 8.36923 4.1382 8.44939 4.20051C8.52955 4.26281 8.62524 4.29924 8.72478 4.30532L12.3728 4.55222C12.8489 4.58471 13.0344 5.22795 12.6696 5.54632L9.87484 7.99582C9.79672 8.06369 9.73845 8.15337 9.70672 8.25453C9.675 8.35569 9.67112 8.46421 9.69553 8.56759L10.5302 12.0242C10.6725 12.6089 10.0789 13.0832 9.60278 12.7649L6.70291 10.8352C6.62159 10.7808 6.52722 10.752 6.43085 10.752C6.33448 10.752 6.24011 10.7808 6.15879 10.8352Z" fill="#EFEFEF"/>
<path d="M26.4434 10.8352L23.3271 12.9143C22.9252 13.1807 22.4306 12.7844 22.548 12.2971L23.4508 8.56759C23.4752 8.46421 23.4713 8.35569 23.4396 8.25453C23.4079 8.15337 23.3496 8.06369 23.2715 7.99582L20.4767 5.54632C20.1119 5.22795 20.2974 4.58471 20.7735 4.55222L24.4215 4.30532C24.5211 4.29924 24.6168 4.26281 24.6969 4.20051C24.7771 4.1382 24.8382 4.0527 24.8729 3.95447L26.2332 0.354934C26.2692 0.250913 26.3348 0.161055 26.4211 0.0975578C26.5073 0.0340605 26.6101 0 26.7155 0C26.8208 0 26.9236 0.0340605 27.0099 0.0975578C27.0961 0.161055 27.1617 0.250913 27.1977 0.354934L28.558 3.95447C28.5927 4.0527 28.6538 4.1382 28.734 4.20051C28.8142 4.26281 28.9098 4.29924 29.0094 4.30532L32.6574 4.55222C33.1335 4.58471 33.319 5.22795 32.9542 5.54632L30.1594 7.99582C30.0813 8.06369 30.0231 8.15337 29.9913 8.25453C29.9596 8.35569 29.9557 8.46421 29.9801 8.56759L30.8149 12.0242C30.9571 12.6089 30.3635 13.0832 29.8874 12.7649L26.9875 10.8352C26.9062 10.7808 26.8118 10.752 26.7155 10.752C26.6191 10.752 26.5247 10.7808 26.4434 10.8352Z" fill="#EFEFEF"/>
<path d="M46.7279 10.8352L43.6116 12.9143C43.2097 13.1807 42.7151 12.7844 42.8325 12.2971L43.7353 8.56759C43.7597 8.46421 43.7558 8.35569 43.7241 8.25453C43.6923 8.15337 43.6341 8.06369 43.556 7.99582L40.7612 5.54632C40.3964 5.22795 40.5819 4.58471 41.058 4.55222L44.706 4.30532C44.8055 4.29924 44.9012 4.26281 44.9814 4.20051C45.0616 4.1382 45.1227 4.0527 45.1574 3.95447L46.5177 0.354934C46.5537 0.250913 46.6193 0.161055 46.7055 0.0975578C46.7918 0.0340605 46.8946 0 46.9999 0C47.1053 0 47.2081 0.0340605 47.2943 0.0975578C47.3806 0.161055 47.4462 0.250913 47.4822 0.354934L48.8425 3.95447C48.8772 4.0527 48.9383 4.1382 49.0185 4.20051C49.0986 4.26281 49.1943 4.29924 49.2939 4.30532L52.9419 4.55222C53.418 4.58471 53.6035 5.22795 53.2387 5.54632L50.4439 7.99582C50.3658 8.06369 50.3075 8.15337 50.2758 8.25453C50.2441 8.35569 50.2402 8.46421 50.2646 8.56759L51.0993 12.0242C51.2415 12.6089 50.648 13.0832 50.1719 12.7649L47.272 10.8352C47.1907 10.7808 47.0963 10.752 46.9999 10.752C46.9036 10.752 46.8092 10.7808 46.7279 10.8352Z" fill="url(#paint0_linear_39_215)"/>
<path d="M26.4628 10.8352L23.3465 12.9143C22.9446 13.1807 22.45 12.7844 22.5675 12.2971L23.4702 8.56759C23.4946 8.46421 23.4907 8.35569 23.459 8.25453C23.4273 8.15337 23.369 8.06369 23.2909 7.99582L20.4961 5.54632C20.1313 5.22795 20.3168 4.58471 20.7929 4.55222L24.4409 4.30532C24.5405 4.29924 24.6362 4.26281 24.7163 4.20051C24.7965 4.1382 24.8576 4.0527 24.8923 3.95447L26.2526 0.354934C26.2886 0.250913 26.3542 0.161055 26.4405 0.0975578C26.5267 0.0340605 26.6295 0 26.7349 0C26.8402 0 26.943 0.0340605 27.0293 0.0975578C27.1155 0.161055 27.1811 0.250913 27.2171 0.354934L28.5774 3.95447C28.6121 4.0527 28.6732 4.1382 28.7534 4.20051C28.8336 4.26281 28.9293 4.29924 29.0288 4.30532L32.6768 4.55222C33.1529 4.58471 33.3384 5.22795 32.9736 5.54632L30.1789 7.99582C30.1007 8.06369 30.0425 8.15337 30.0107 8.25453C29.979 8.35569 29.9751 8.46421 29.9995 8.56759L30.8343 12.0242C30.9765 12.6089 30.3829 13.0832 29.9068 12.7649L27.0069 10.8352C26.9256 10.7808 26.8312 10.752 26.7349 10.752C26.6385 10.752 26.5441 10.7808 26.4628 10.8352Z" fill="url(#paint1_linear_39_215)"/>
<path d="M6.19767 10.8352L3.08139 12.9143C2.67949 13.1807 2.18484 12.7844 2.30232 12.2971L3.20505 8.56759C3.22946 8.46421 3.22558 8.35569 3.19385 8.25453C3.16213 8.15337 3.10385 8.06369 3.02574 7.99582L0.230978 5.54632C-0.133825 5.22795 0.0516672 4.58471 0.527766 4.55222L4.1758 4.30532C4.27533 4.29924 4.37103 4.26281 4.45119 4.20051C4.53135 4.1382 4.59249 4.0527 4.62716 3.95447L5.98745 0.354934C6.02345 0.250913 6.08905 0.161055 6.17533 0.0975578C6.26161 0.0340605 6.36439 0 6.46973 0C6.57506 0 6.67785 0.0340605 6.76413 0.0975578C6.85041 0.161055 6.916 0.250913 6.95201 0.354934L8.31229 3.95447C8.34696 4.0527 8.40811 4.1382 8.48827 4.20051C8.56843 4.26281 8.66412 4.29924 8.76366 4.30532L12.4117 4.55222C12.8878 4.58471 13.0733 5.22795 12.7085 5.54632L9.91372 7.99582C9.8356 8.06369 9.77733 8.15337 9.7456 8.25453C9.71388 8.35569 9.71 8.46421 9.73441 8.56759L10.5691 12.0242C10.7113 12.6089 10.1178 13.0832 9.64166 12.7649L6.74178 10.8352C6.66047 10.7808 6.56609 10.752 6.46973 10.752C6.37336 10.752 6.27899 10.7808 6.19767 10.8352Z" fill="url(#paint2_linear_39_215)"/>
<path d="M67.0125 10.8352L63.8962 12.9143C63.4943 13.1807 62.9997 12.7844 63.1171 12.2971L64.0199 8.56759C64.0443 8.46421 64.0404 8.35569 64.0087 8.25453C63.9769 8.15337 63.9187 8.06369 63.8406 7.99582L61.0458 5.54632C60.681 5.22795 60.8665 4.58471 61.3426 4.55222L64.9906 4.30532C65.0902 4.29924 65.1858 4.26281 65.266 4.20051C65.3462 4.1382 65.4073 4.0527 65.442 3.95447L66.8023 0.354934C66.8383 0.250913 66.9039 0.161055 66.9901 0.0975578C67.0764 0.0340605 67.1792 0 67.2845 0C67.3899 0 67.4927 0.0340605 67.5789 0.0975578C67.6652 0.161055 67.7308 0.250913 67.7668 0.354934L69.1271 3.95447C69.1618 4.0527 69.2229 4.1382 69.3031 4.20051C69.3832 4.26281 69.4789 4.29924 69.5785 4.30532L73.2265 4.55222C73.7026 4.58471 73.8881 5.22795 73.5233 5.54632L70.7285 7.99582C70.6504 8.06369 70.5921 8.15337 70.5604 8.25453C70.5287 8.35569 70.5248 8.46421 70.5492 8.56759L71.3839 12.0242C71.5262 12.6089 70.9326 13.0832 70.4565 12.7649L67.5566 10.8352C67.4753 10.7808 67.3809 10.752 67.2845 10.752C67.1882 10.752 67.0938 10.7808 67.0125 10.8352Z" fill="url(#paint3_linear_39_215)"/>
<path d="M87.297 10.8352L84.1808 12.9143C83.7789 13.1807 83.2842 12.7844 83.4017 12.2971L84.3044 8.56759C84.3288 8.46421 84.3249 8.35569 84.2932 8.25453C84.2615 8.15337 84.2032 8.06369 84.1251 7.99582L81.3303 5.54632C80.9655 5.22795 81.151 4.58471 81.6271 4.55222L85.2752 4.30532C85.3747 4.29924 85.4704 4.26281 85.5506 4.20051C85.6307 4.1382 85.6919 4.0527 85.7265 3.95447L87.0868 0.354934C87.1228 0.250913 87.1884 0.161055 87.2747 0.0975578C87.361 0.0340605 87.4638 0 87.5691 0C87.6744 0 87.7772 0.0340605 87.8635 0.0975578C87.9498 0.161055 88.0154 0.250913 88.0514 0.354934L89.4117 3.95447C89.4463 4.0527 89.5075 4.1382 89.5876 4.20051C89.6678 4.26281 89.7635 4.29924 89.863 4.30532L93.5111 4.55222C93.9872 4.58471 94.1726 5.22795 93.8078 5.54632L91.0131 7.99582C90.935 8.06369 90.8767 8.15337 90.845 8.25453C90.8132 8.35569 90.8094 8.46421 90.8338 8.56759L91.6685 12.0242C91.8107 12.6089 91.2171 13.0832 90.741 12.7649L87.8411 10.8352C87.7598 10.7808 87.6655 10.752 87.5691 10.752C87.4727 10.752 87.3784 10.7808 87.297 10.8352Z" fill="url(#paint4_linear_39_215)"/>
<defs>
<linearGradient id="paint0_linear_39_215" x1="48.6997" y1="1.05824e-07" x2="44.9126" y2="13.0765" gradientUnits="userSpaceOnUse">
<stop stop-color="#FFD647"/>
<stop offset="1" stop-color="#FFAA47"/>
</linearGradient>
<linearGradient id="paint1_linear_39_215" x1="28.4347" y1="1.05824e-07" x2="24.6475" y2="13.0765" gradientUnits="userSpaceOnUse">
<stop stop-color="#FFD647"/>
<stop offset="1" stop-color="#FFAA47"/>
</linearGradient>
<linearGradient id="paint2_linear_39_215" x1="8.16953" y1="1.05824e-07" x2="4.3824" y2="13.0765" gradientUnits="userSpaceOnUse">
<stop stop-color="#FFD647"/>
<stop offset="1" stop-color="#FFAA47"/>
</linearGradient>
<linearGradient id="paint3_linear_39_215" x1="68.9843" y1="1.05824e-07" x2="65.1972" y2="13.0765" gradientUnits="userSpaceOnUse">
<stop stop-color="#FFD647"/>
<stop offset="1" stop-color="#FFAA47"/>
</linearGradient>
<linearGradient id="paint4_linear_39_215" x1="89.2689" y1="1.05824e-07" x2="85.4818" y2="13.0765" gradientUnits="userSpaceOnUse">
<stop stop-color="#FFD647"/>
<stop offset="1" stop-color="#FFAA47"/>
</linearGradient>
</defs>
</svg>
