<svg width="163" height="1466" viewBox="0 0 163 1466" fill="none" xmlns="http://www.w3.org/2000/svg">
<path fill-rule="evenodd" clip-rule="evenodd" d="M-29.4121 0.361836C-8.82983 0.212109 3.24473 23.4609 -8.71515 40.2123C-36.4234 80.415 -93.84 160.835 -71.2586 240.673C-49.6772 320.518 51.9021 399.781 110.483 479.357C168.063 558.94 183.645 638.829 126.228 719.249C68.8115 799.668 -59.6032 880.605 -74.0208 960.712C-87.4385 1040.81 -127.581 1060.26 -91 1140C-61.5941 1204.1 -59.6344 1274.28 -67.1178 1320.18C-70.1191 1338.59 -67.6749 1358.03 -56.9492 1373.29C-26.7372 1416.27 -64.3343 1474.14 -115.883 1464L-189.277 1449.57C-212.119 1445.07 -228.647 1425.13 -228.816 1401.85C-229.107 1361.85 -229.689 1281.85 -230.271 1201.85C-230.853 1121.86 -231.435 1041.86 -232.017 961.861C-232.599 881.863 -233.181 801.865 -233.762 721.867C-234.344 641.87 -234.926 561.872 -235.508 481.874C-236.09 401.876 -236.672 321.878 -237.254 241.88C-237.836 161.882 -238.418 81.8844 -238.709 41.8854C-238.87 19.7946 -221.092 1.75623 -199.001 1.59553L-29.4121 0.361836Z" fill="#BA52DD"/>
</svg>
